<svg xmlns="http://www.w3.org/2000/svg" viewBox="0 0 64 64" role="img" aria-label="Sanjay portfolio icon">
  <rect width="64" height="64" rx="12" fill="#126f68"/>
  <path d="M18 44c3.8 3.1 8.5 4.6 14 4.6 8.6 0 14.1-4.2 14.1-10.8 0-5.5-3.5-8.6-11.4-10.3l-5.6-1.2c-4.3-.9-5.9-2.1-5.9-4.2 0-2.5 2.6-4.1 6.7-4.1 4 0 7.3 1.1 10.7 3.5l3.3-6.1c-3.7-2.7-8.2-4-13.7-4-8.3 0-13.7 4.3-13.7 10.9 0 5.4 3.4 8.6 10.6 10.1l5.8 1.2c4.5 1 6.3 2.2 6.3 4.6 0 2.5-2.8 4.1-7.2 4.1-4.3 0-7.9-1.2-11.8-4.1L18 44z" fill="#fff"/>
  <path d="M16 50h32v5H16z" fill="#f0c24b"/>
</svg>
